# xmcd
#
# Track frame offsets: 
#        150
#        11381
#        32086
#        51369
#        66557
#        89713
#        104552
#        135635
#        156910
#        171136
#        197190
#        212321
#        223859
#        240522
#        253843
#        274491
#        289317
#        304630
#        326213
#
# Disc length: 4789 seconds
#
# Revision: 0
# Processed by: cddbd v1.5.2PL0 Copyright (c) Steve Scherf et al.
# Submitted via: ExactAudioCopy v0.99pb4
#
DISCID=2e12b313
DTITLE=Various Artist - The Yardbirds Family Tree -  Birds of a Feath
DTITLE=er
DYEAR=1900
DGENRE=Rock
TTITLE0=The British Invasion All-Stars - Shapes of Things - The Britis
TTITLE0=h Invasion All-Stars
TTITLE1=The British Invasion All-Stars - Mona - The British Invasion A
TTITLE1=ll-Stars
TTITLE2=The British Invasion All-Stars - Gimme Some Lovin' - The Briti
TTITLE2=sh Invasion All-Stars
TTITLE3=The British Invasion All-Stars - Shakin' All Over - The Britis
TTITLE3=h Invasion All-Stars
TTITLE4=The British Invasion All-Stars - Green Onions - The British In
TTITLE4=vasion All-Stars
TTITLE5=The British Invasion All-Stars - I'm a Man - The British Invas
TTITLE5=ion All-Stars
TTITLE6=The Ambulators featuring Pete French - Wand Dang Doodle - The 
TTITLE6=Ambulators featuring Pete French
TTITLE7=The Ambulators featuring Pete French - Sitting on Top of the W
TTITLE7=orld - The Ambulators featuring Pete French
TTITLE8=Jim McCarty Band - Outside Woman Blues - Jim McCarty Band
TTITLE9=Jim McCarty Band - How Many More Times - Jim McCarty Band
TTITLE10=Jim McCarty Band - Framed - Jim McCarty Band
TTITLE11=Jim McCarty Band - I Go Crazy - Jim McCarty Band
TTITLE12=Jim McCarty Band - How Blue - Jim McCarty Band
TTITLE13=The Ambulators featuring Dave Walker - Don't Start Me Talkin'
TTITLE13=The Ambulators featuring Dave Walker
TTITLE14=The Ambulators featuring Dave Walker - Nine Below Zero - The 
TTITLE14=Ambulators featuring Dave Walker
TTITLE15=The Ambulators featuring Dave Walker - Bring It On Home - The
TTITLE15=Ambulators featuring Dave Walker
TTITLE16=The Ambulators featuring Dave Walker - Keep It to Yourself - 
TTITLE16=The Ambulators featuring Dave Walker
TTITLE17=The Ambulators featuring Dave Walker - Help Me - The Ambulato
TTITLE17=rs featuring Dave Walker
TTITLE18=The Yardbirds Experience - Jimi Hendrix Trilogy - The Yardbir
TTITLE18=ds Experience
EXTD=
EXTT0=
EXTT1=
EXTT2=
EXTT3=
EXTT4=
EXTT5=
EXTT6=
EXTT7=
EXTT8=
EXTT9=
EXTT10=
EXTT11=
EXTT12=
EXTT13=
EXTT14=
EXTT15=
EXTT16=
EXTT17=
EXTT18=
PLAYORDER=
